<svg id="Layer_1" data-name="Layer 1" xmlns="http://www.w3.org/2000/svg" viewBox="0 0 64 64"><defs><style>.cls-1{fill:#ffc31f;}.cls-2{fill:#ffc835;}.cls-3{fill:#ffc26a;}.cls-4{fill:#ffc62a;}.cls-5{fill:#ffb61f;fill-rule:evenodd;}</style></defs><path class="cls-1" d="M48.09,24.73a4,4,0,1,1,0,5.65A4,4,0,0,1,48.09,24.73Z" transform="translate(-6.48 -8)"/><path class="cls-2" d="M28.86,49.62a4,4,0,1,0,0,5.65A4,4,0,0,0,28.86,49.62Z" transform="translate(-6.48 -8)"/><path class="cls-3" d="M22.51,31.58a4,4,0,1,1-4.9,2.83A4,4,0,0,1,22.51,31.58Z" transform="translate(-6.48 -8)"/><path class="cls-4" d="M35,26.86A4,4,0,1,0,30.05,24,4,4,0,0,0,35,26.86Z" transform="translate(-6.48 -8)"/><path class="cls-5" d="M6.48,40a32,32,0,1,1,64,0,4.09,4.09,0,0,1-4.12,4.07H54.52a9.62,9.62,0,0,0-6.81,16.4,6.8,6.8,0,0,1,1.89,6.26,6,6,0,0,1-4.75,4.63A32,32,0,0,1,6.48,40Zm32-27.2a27.2,27.2,0,0,0,0,54.4,27.62,27.62,0,0,0,5.43-.54,1.18,1.18,0,0,0,1-1,2,2,0,0,0-.6-1.84A14.42,14.42,0,0,1,54.52,39.27H65.67A27.21,27.21,0,0,0,38.47,12.8Z" transform="translate(-6.48 -8)"/></svg>