<svg id="Layer_1" data-name="Layer 1" xmlns="http://www.w3.org/2000/svg" viewBox="0 0 63.8 56"><defs><style>.cls-1{fill:#ffc900;}.cls-2{fill:#f4b900;}.cls-3{fill:#ffc715;}.cls-4{fill:#ffbf22;}.cls-5{fill:#ffbf15;}</style></defs><path class="cls-1" d="M62.58,12.13a2.4,2.4,0,0,1,3.38.38c6,7.5,6,19.49,0,27a2.4,2.4,0,0,1-3.75-3c4.6-5.75,4.6-15.25,0-21A2.41,2.41,0,0,1,62.58,12.13Z" transform="translate(-6.66 -11.61)"/><path class="cls-2" d="M14.91,15.51a2.4,2.4,0,1,0-3.75-3c-6,7.5-6,19.49,0,27a2.4,2.4,0,0,0,3.75-3C10.31,30.76,10.31,21.26,14.91,15.51Z" transform="translate(-6.66 -11.61)"/><path class="cls-3" d="M25.91,22a5.67,5.67,0,0,0,0,8,2.4,2.4,0,0,1-3.4,3.39,10.47,10.47,0,0,1,0-14.81A2.4,2.4,0,0,1,25.91,22Z" transform="translate(-6.66 -11.61)"/><path class="cls-4" d="M51.21,22a5.69,5.69,0,0,1,0,8,2.4,2.4,0,0,0,3.39,3.39,10.47,10.47,0,0,0,0-14.81A2.4,2.4,0,0,0,51.21,22Z" transform="translate(-6.66 -11.61)"/><path class="cls-5" d="M33,26a5.6,5.6,0,0,1,5.6-5.6h0A5.6,5.6,0,0,1,41,31.07V65.21a2.4,2.4,0,0,1-4.8,0V31.06A5.59,5.59,0,0,1,33,26Z" transform="translate(-6.66 -11.61)"/><path class="cls-5" d="M33,26a5.6,5.6,0,0,1,5.6-5.6h0A5.6,5.6,0,0,1,41,31.07V65.21a2.4,2.4,0,0,1-4.8,0V31.06A5.59,5.59,0,0,1,33,26Z" transform="translate(-6.66 -11.61)"/></svg>