<svg id="Layer_1" data-name="Layer 1" xmlns="http://www.w3.org/2000/svg" viewBox="0 0 107.3 68.86"><defs><style>.cls-1,.cls-3{fill:#ffc755;}.cls-2{fill:#ffbd0a;fill-rule:evenodd;}.cls-3{stroke:#ffb63f;stroke-miterlimit:10;stroke-width:4px;}.cls-4{fill:none;}</style></defs><path class="cls-1" d="M51.69,32.59a2.5,2.5,0,1,0-3.54-3.54L36.55,40.66,31.85,36a2.5,2.5,0,1,0-3.54,3.54L34.78,46a2.5,2.5,0,0,0,3.54,0Z" transform="translate(-5.22 -3.83)"/><path class="cls-2" d="M42.87,7.65a7.51,7.51,0,0,0-5.74,0l-21.83,9a7.26,7.26,0,0,0-4.54,6.48c-.45,15.13,4,36.06,25.69,48.57a7.06,7.06,0,0,0,7.11,0c21.21-12.5,26.06-33.37,25.67-48.52A7.25,7.25,0,0,0,64.7,16.7ZM39,12.27a2.55,2.55,0,0,1,1.92,0l21.82,9.05a2.28,2.28,0,0,1,1.46,2C64.6,37.41,60.1,56.16,41,67.41a2.09,2.09,0,0,1-2.07,0c-19.48-11.24-23.61-30-23.19-44.1a2.27,2.27,0,0,1,1.45-2Z" transform="translate(-5.22 -3.83)"/><circle class="cls-1" cx="3.65" cy="60.19" r="3.26"/><circle class="cls-1" cx="3.26" cy="3.26" r="3.26"/><circle class="cls-1" cx="67.3" cy="5" r="3.26"/><circle class="cls-1" cx="66.35" cy="59.67" r="3.26"/><line class="cls-3" x1="67.2" y1="60.51" x2="53.91" y2="49.27"/><line class="cls-3" x1="14.68" y1="49.39" x2="5.06" y2="59"/><line class="cls-4" x1="107.3" y1="53.17" x2="106.43" y2="54.04"/><line class="cls-4" x1="106.43" y1="54.04" x2="107.3" y2="53.17"/><line class="cls-4" x1="99.5" y1="67.12" x2="100.36" y2="66.25"/><line class="cls-3" x1="15.27" y1="13.78" x2="4.73" y2="4.88"/><line class="cls-3" x1="67.3" y1="5" x2="54.88" y2="15.8"/></svg>